<svg id="Layer_1" data-name="Layer 1" xmlns="http://www.w3.org/2000/svg" viewBox="0 0 935.49 821.11"><defs><style>.cls-1,.cls-2{fill:none;stroke-miterlimit:10;}.cls-1{stroke:#f2b90c;stroke-width:12px;}.cls-2{stroke:#024059;stroke-width:5px;}.cls-3{fill:#d97904;}</style></defs><path class="cls-1" d="M781.28,165.45c-44.74-22-79.44,10.49-190,46C275,312.91,93.73,196.49,36.77,284.94S104.71,578.14,254.3,686.3c17.4,12.58,291.43,205.24,484.08,76.59C943.29,626.07,905.42,226.39,781.28,165.45Z"/><path class="cls-2" d="M459.57,64.34C282,157,216.46,404.33,278.81,465.7c49.25,48.48,142.5-54.35,410.55-67.4,120.1-5.85,177.67,11.08,211.41-30.64,48.44-59.91,8.9-192.77-67.41-266.55C734.85,5.86,571.74,5.84,459.57,64.34Z"/><circle class="cls-3" cx="147.95" cy="126.64" r="56.59"/></svg>