<svg id="Layer_1" data-name="Layer 1" xmlns="http://www.w3.org/2000/svg" viewBox="0 0 817.02 849.7"><defs><style>.cls-1{fill:#024059;}.cls-2{fill:none;stroke:#f2b90c;stroke-miterlimit:10;stroke-width:5px;}.cls-3{fill:#d97904;}</style></defs><path class="cls-1" d="M151.42,242.54C186.9,193.2,259.14,92.71,362.83,92.41c108.33-.31,182.16,109,239,193C664.39,378.05,787,559.49,706,683.73,628.92,801.9,402.17,815.36,350.57,741.94,303.54,675,408.88,545.75,372,515.22,325.63,476.81,153.63,677.21,81,634.71,17.58,597.65,47.89,386.54,151.42,242.54Z"/><path class="cls-2" d="M376.53,380.31C344,441.47,454.83,618.6,589.6,616.36c65.85-1.1,123.6-44.79,154.49-92.05,89-136.18,6.1-380.29-153.16-459.38C496,17.78,368.29,26.5,349.44,71.43c-27,64.38,176.53,186.23,144.78,253.7C475.65,364.59,398.18,339.63,376.53,380.31Z"/><circle class="cls-3" cx="201.46" cy="737.97" r="71.96"/></svg>