<svg id="Layer_1" data-name="Layer 1" xmlns="http://www.w3.org/2000/svg" viewBox="0 0 928.17 755.74"><defs><style>.cls-1{fill:#f2b90c;}.cls-2,.cls-4{fill:none;stroke-miterlimit:10;}.cls-2{stroke:#024059;stroke-width:7px;}.cls-3{fill:#d97904;}.cls-4{stroke:#a64833;stroke-width:8px;}</style></defs><path class="cls-1" d="M193,359.08C197.17,224.7,300.3,65.9,432,58.82c69.78-3.75,142.71,35.35,183.83,89.87,65,86.17,1.46,145.81,63.32,230.81C741.62,465.35,852,467.2,865,555.16a98.75,98.75,0,0,1,0,30.64C849.7,674.05,698,730.23,597.45,732.86,411.27,737.74,186.68,564.66,193,359.08Z"/><path class="cls-2" d="M419.74,197.72C405.73,179,266.13-3.06,146,36.35,37.61,71.94,12.87,265.86,35.74,389.72c8.81,47.66,25,135.44,100.09,189.95,107,77.71,293.39,58.6,361.53-51.06C574.63,404.27,451.94,240.66,419.74,197.72Z"/><path class="cls-3" d="M646.46,129.07c-6.43-6.47,1.32-16.91,9.4-12.68,41.56,21.7,95.48,61.08,119.42,127.09,24.31,67,16,156.67-14.43,166.32C729.15,419.87,660.75,346.87,665,282c2-31.53,19.95-40.88,21.34-70.37C687.77,180.56,669.66,152.4,646.46,129.07Z"/><ellipse class="cls-4" cx="825.19" cy="661.34" rx="66.38" ry="71.62"/></svg>