<svg id="Layer_1" data-name="Layer 1" xmlns="http://www.w3.org/2000/svg" viewBox="0 0 928.17 755.74"><defs><style>.cls-1,.cls-2,.cls-3{fill:none;stroke-miterlimit:10;}.cls-1{stroke:#f2b90c;stroke-width:9px;}.cls-2{stroke:#024059;stroke-width:7px;}.cls-3{stroke:#a64833;stroke-width:7.7px;}</style></defs><path class="cls-1" d="M94,412.6C71.07,203.16,300.72,39.64,432,58.82c61,8.91,72,51.4,183.83,89.87,108.36,37.27,141,6.59,195.06,41.27C922,261.23,946,494.7,865,555.16c-61.25,45.74-131.64-36.15-262.47,4.5C489.4,594.82,484.22,675.23,400.34,688.34,283.82,706.56,112.23,579.79,94,412.6Z"/><path class="cls-2" d="M563.74,151.15c-74.49-57.82-216.45,71.4-326.8-4.09-62-42.41-55.83-109.65-90.9-110.71C87.86,34.6,4,217.72,35.74,389.72c8.81,47.66,25,135.44,100.09,189.95,104.4,75.82,267.94,36.71,361.53-51.06C618.63,414.89,635.34,206.72,563.74,151.15Z"/><circle class="cls-3" cx="846.89" cy="597.11" r="66.38"/></svg>